<?xml version="1.0" encoding="iso-8859-1"?>
<!-- Generator: Adobe Illustrator 19.0.0, SVG Export Plug-In . SVG Version: 6.00 Build 0)  -->
<svg version="1.1" id="Layer_1" xmlns="http://www.w3.org/2000/svg" xmlns:xlink="http://www.w3.org/1999/xlink" x="0px" y="0px"
	 viewBox="0 0 512 512" style="enable-background:new 0 0 512 512;" xml:space="preserve">
<polygon style="fill:#B9B9B9;" points="373.106,8.17 198.809,228.766 373.106,449.362 405.787,449.362 405.787,8.17 "/>
<polygon style="fill:#DCDCDC;" points="373.106,40.851 373.106,8.17 51.745,8.17 51.745,449.362 373.106,449.362 373.106,204.255 
	280.511,171.574 373.106,138.894 373.106,106.213 280.511,73.532 "/>
<g>
	<polygon style="fill:#737373;" points="373.106,40.851 373.106,106.213 340.426,106.213 318.638,73.532 340.426,40.851 	"/>
	<polygon style="fill:#737373;" points="373.106,138.894 373.106,204.255 340.426,204.255 318.638,171.574 340.426,138.894 	"/>
</g>
<g>
	<rect x="84.426" y="40.851" style="fill:#969696;" width="256" height="65.362"/>
	<rect x="84.426" y="138.894" style="fill:#969696;" width="256" height="65.362"/>
</g>
<g>
	<path style="fill:#B9B9B9;" d="M210.117,392.17h-93.011c-4.512,0-8.17-3.658-8.17-8.17c0-4.512,3.658-8.17,8.17-8.17h93.011
		c4.512,0,8.17,3.658,8.17,8.17C218.287,388.512,214.629,392.17,210.117,392.17z"/>
	<path style="fill:#B9B9B9;" d="M216.569,359.489h-99.463c-4.512,0-8.17-3.658-8.17-8.17c0-4.512,3.658-8.17,8.17-8.17h99.463
		c4.512,0,8.17,3.658,8.17,8.17C224.74,355.831,221.082,359.489,216.569,359.489z"/>
</g>
<path style="fill:#02ACAB;" d="M351.319,285.957V503.83c60.165,0,108.936-48.771,108.936-108.936S411.485,285.957,351.319,285.957z"
	/>
<path style="fill:#42C8C6;" d="M351.319,285.957c42.115,0,76.255,48.771,76.255,108.936S393.434,503.83,351.319,503.83
	c-60.165,0-108.936-48.771-108.936-108.936S291.154,285.957,351.319,285.957z"/>
<path style="fill:#FFFFFF;" d="M405.787,378.553H367.66v-38.128c0-9.024-7.316-16.34-16.34-16.34c-9.024,0-16.34,7.316-16.34,16.34
	v38.128h-38.128c-9.024,0-16.34,7.316-16.34,16.34c0,9.024,7.316,16.34,16.34,16.34h38.128v38.128c0,9.024,7.316,16.34,16.34,16.34
	c9.024,0,16.34-7.316,16.34-16.34v-38.128h38.128c9.024,0,16.34-7.316,16.34-16.34C422.128,385.869,414.811,378.553,405.787,378.553
	z"/>
<path d="M220.601,441.191H59.915V16.34h337.702v247.835c0,4.512,3.657,8.17,8.17,8.17c4.513,0,8.17-3.658,8.17-8.17V8.17
	c0-4.512-3.657-8.17-8.17-8.17H51.745c-4.512,0-8.17,3.658-8.17,8.17v441.191c0,4.512,3.658,8.17,8.17,8.17h168.857
	c4.512,0,8.17-3.658,8.17-8.17C228.771,444.85,225.113,441.191,220.601,441.191z"/>
<circle cx="340.426" cy="73.532" r="8.17"/>
<path d="M381.277,40.851c0-4.512-3.657-8.17-8.17-8.17H84.426c-4.512,0-8.17,3.658-8.17,8.17v65.362c0,4.512,3.658,8.17,8.17,8.17
	h288.681c4.513,0,8.17-3.658,8.17-8.17V40.851z M364.936,98.043H92.596V49.021h272.34V98.043z"/>
<circle cx="340.426" cy="171.574" r="8.17"/>
<circle cx="307.745" cy="73.532" r="8.17"/>
<circle cx="307.745" cy="171.574" r="8.17"/>
<path d="M381.277,138.894c0-4.512-3.657-8.17-8.17-8.17H84.426c-4.512,0-8.17,3.658-8.17,8.17v65.362c0,4.512,3.658,8.17,8.17,8.17
	h288.681c4.513,0,8.17-3.658,8.17-8.17V138.894z M364.936,196.085H92.596v-49.021h272.34V196.085z"/>
<path d="M381.277,236.936c0-4.512-3.657-8.17-8.17-8.17H84.426c-4.512,0-8.17,3.658-8.17,8.17c0,4.512,3.658,8.17,8.17,8.17h288.681
	C377.62,245.106,381.277,241.448,381.277,236.936z"/>
<path d="M351.319,277.787c-64.572,0-117.106,52.533-117.106,117.106S286.747,512,351.319,512s117.106-52.533,117.106-117.106
	S415.891,277.787,351.319,277.787z M351.319,495.66c-55.563,0-100.766-45.203-100.766-100.766s45.203-100.766,100.766-100.766
	s100.766,45.203,100.766,100.766S406.882,495.66,351.319,495.66z"/>
<path d="M405.787,370.383H375.83v-29.957c0-13.516-10.996-24.511-24.511-24.511c-13.515,0-24.511,10.995-24.511,24.511v29.957
	h-29.957c-13.515,0-24.511,10.995-24.511,24.511c0,13.516,10.996,24.511,24.511,24.511h29.957v29.957
	c0,13.516,10.996,24.511,24.511,24.511c13.515,0,24.511-10.995,24.511-24.511v-29.957h29.957c13.515,0,24.511-10.995,24.511-24.511
	C430.298,381.378,419.302,370.383,405.787,370.383z M405.787,403.064H367.66c-4.513,0-8.17,3.658-8.17,8.17v38.128
	c0,4.506-3.665,8.17-8.17,8.17c-4.506,0-8.17-3.665-8.17-8.17v-38.128c0-4.512-3.657-8.17-8.17-8.17h-38.128
	c-4.506,0-8.17-3.665-8.17-8.17s3.665-8.17,8.17-8.17h38.128c4.513,0,8.17-3.658,8.17-8.17v-38.128c0-4.506,3.665-8.17,8.17-8.17
	c4.506,0,8.17,3.665,8.17,8.17v38.128c0,4.512,3.657,8.17,8.17,8.17h38.128c4.506,0,8.17,3.665,8.17,8.17
	S410.293,403.064,405.787,403.064z"/>
<g>
</g>
<g>
</g>
<g>
</g>
<g>
</g>
<g>
</g>
<g>
</g>
<g>
</g>
<g>
</g>
<g>
</g>
<g>
</g>
<g>
</g>
<g>
</g>
<g>
</g>
<g>
</g>
<g>
</g>
</svg>
